<?xml version="1.0" standalone="no"?>
<!DOCTYPE svg PUBLIC "-//W3C//DTD SVG 20010904//EN"
 "http://www.w3.org/TR/2001/REC-SVG-20010904/DTD/svg10.dtd">
<svg version="1.0" xmlns="http://www.w3.org/2000/svg"
 width="256.000000pt" height="258.000000pt" viewBox="0 0 256.000000 258.000000"
 preserveAspectRatio="xMidYMid meet">

<g transform="translate(0.000000,258.000000) scale(0.100000,-0.100000)"
fill="#000000" stroke="none">
<path d="M1132 2189 c-440 -78 -751 -469 -729 -914 27 -537 500 -913 1032
-820 328 58 587 292 695 630 26 82 42 347 21 368 -8 8 -11 2 -11 -24 0 -57
-27 -148 -72 -238 -34 -70 -58 -102 -137 -181 -103 -103 -173 -145 -286 -174
-139 -35 -325 -38 -445 -6 -117 31 -243 129 -296 230 -25 47 -29 67 -29 136 0
71 3 85 27 122 15 22 47 52 71 66 83 49 125 59 252 61 100 2 121 5 123 18 3
12 -12 17 -73 22 -151 15 -259 -14 -368 -98 -21 -16 -41 -27 -44 -23 -4 3 -1
34 5 69 24 129 120 265 250 351 71 47 171 86 221 86 17 0 50 14 78 33 38 25
58 32 96 32 42 0 52 -4 78 -33 33 -37 36 -58 13 -90 -15 -22 -15 -25 7 -49 41
-44 136 -83 202 -83 64 0 133 23 121 41 -16 27 51 32 84 6 6 -5 12 -31 12 -57
0 -59 -32 -123 -83 -164 -32 -26 -49 -31 -115 -37 -42 -3 -63 -7 -47 -8 17 -1
39 -6 50 -10 31 -12 -69 -31 -164 -31 -59 0 -80 -4 -84 -14 -7 -19 73 -30 146
-21 200 25 327 138 327 289 0 33 -6 68 -13 77 -7 8 -39 34 -72 56 -58 39 -98
79 -213 212 -43 49 -70 69 -135 101 -45 21 -111 46 -147 55 -79 19 -276 27
-348 14z m-19 -137 c24 -24 15 -47 -13 -32 -10 5 -35 10 -54 10 -61 0 -101
-62 -77 -118 l11 -27 -20 24 c-37 43 -22 122 28 154 34 22 97 16 125 -11z"/>
<path d="M1520 1890 c0 -24 -35 -28 -47 -5 -8 13 -11 13 -31 -1 -23 -16 -23
-17 -5 -36 23 -26 66 -48 93 -48 21 0 60 33 60 50 0 6 -11 22 -25 35 -29 30
-45 32 -45 5z"/>
<path d="M1512 1614 c-90 -62 -183 -185 -206 -274 -4 -14 12 11 36 54 48 90
120 169 196 216 29 17 52 34 52 36 0 12 -31 -1 -78 -32z"/>
<path d="M1566 1580 c-31 -29 -70 -74 -87 -101 -34 -54 -69 -156 -68 -197 0
-18 5 -9 13 25 23 93 74 183 144 251 77 77 76 96 -2 22z"/>
<path d="M1647 1568 c-41 -56 -75 -120 -91 -177 -22 -74 -19 -99 3 -31 21 65
52 128 93 188 35 51 31 68 -5 20z"/>
<path d="M1385 1450 c-3 -5 -3 -14 0 -20 9 -15 52 -12 58 4 9 22 -45 37 -58
16z"/>
<path d="M1477 1427 c-8 -21 1 -27 40 -27 23 0 33 5 33 15 0 8 -6 15 -12 15
-7 0 -23 3 -34 6 -14 4 -23 0 -27 -9z"/>
</g>
</svg>
