<?xml version="1.0" encoding="UTF-8"?>
<svg id="lining" xmlns="http://www.w3.org/2000/svg" viewBox="0 0 512 512">
  <defs>
    <style>
      .cls-1 {
        stroke-width: 0px;
      }

      .cls-1, .cls-2 {
        fill: #179299;
      }

      .cls-3 {
        stroke-miterlimit: 10;
      }

      .cls-3, .cls-4, .cls-5 {
        fill: none;
      }

      .cls-3, .cls-4, .cls-5, .cls-2 {
        stroke: #179299;
      }

      .cls-4, .cls-5, .cls-2 {
        stroke-linecap: round;
        stroke-linejoin: round;
      }

      .cls-4, .cls-2 {
        stroke-width: 5px;
      }
    </style>
  </defs>
  <path class="cls-4" d="M79.89,145.67c21.98-9.47,46.34-9.46,68.34-.04,8.66,3.71,17.37,9,23.96,16.55,22.22,25.43,11.86,51.05,21.82,61.37,9.97,10.32,10.9,73.58-79.76,73.57h-.25c-90.67-.02-89.71-63.28-79.74-73.6s-.38-35.94,21.85-61.36c6.57-7.51,15.19-12.79,23.77-16.49Z"/>
  <ellipse class="cls-2" cx="114.14" cy="247.38" rx="12.74" ry="6.06"/>
  <path class="cls-4" d="M72.99,149.12s-8.49-15.77-21.83-4.86c-13.94,11.4.88,23.05.88,23.05"/>
  <path class="cls-4" d="M155.56,149.14s8.49-15.77,21.83-4.85c13.94,11.41-.89,23.05-.89,23.05"/>
  <polyline class="cls-4" points="247.01 347.15 260.79 366.42 137.37 454.63 123.59 435.35"/>
  <polyline class="cls-4" points="89.04 387.01 75.63 368.24 199.05 280.03 212.47 298.82"/>
  <ellipse class="cls-4" cx="106.85" cy="410.81" rx="20.01" ry="29.72" transform="translate(-218.95 138.71) rotate(-35.55)"/>
  <ellipse class="cls-4" cx="230.2" cy="322.65" rx="20.01" ry="29.72" transform="translate(-144.69 194) rotate(-35.55)"/>
  <polyline class="cls-4" points="199.05 280.03 168.03 367.08 75.63 368.24"/>
  <path class="cls-4" d="M349.2,369.57s-57.81,2.6-43.03,33.13c12.19,25.21,107.51,5.07,90.39-43.16"/>
  <path class="cls-4" d="M91.49,295.62c-.18,4.77-2,32.17,7.7,55.21"/>
  <path class="cls-4" d="M152.73,292.85c3.15,3.76,7.43,8.57,11.44,12.11"/>
  <path class="cls-4" d="M443.55,386.66c2.94,46.14-53.46,88.54-131.34,92.37-77.87,3.82-149.87-42.25-149.87-42.25"/>
  <path class="cls-4" d="M251.43,342.46s25.75,7.46,58.1,2.5"/>
  <path class="cls-4" d="M319.62,478.55s29.34,24.24,75.58,2.62c46.24-21.63,47.95-43.43,47.95-43.43,0,0,54.96-21.06,60.45-59.84,1.12-7.94-3.87-15.67-11.67-17.55-7.76-1.87-20.09,1.42-34.48,20.65"/>
  <line class="cls-4" x1="161.52" y1="244.96" x2="225.62" y2="240.15"/>
  <line class="cls-4" x1="161.51" y1="256" x2="223.37" y2="259.53"/>
  <line class="cls-4" x1="66.73" y1="244.94" x2="2.62" y2="240.11"/>
  <line class="cls-4" x1="66.73" y1="255.98" x2="4.87" y2="259.49"/>
  <path class="cls-4" d="M397.05,321.57s-22.68-11.32-50.63-5.51c-19.04,3.96-29.15,10.31-33.95,19.58-6.12,11.82-3.26,26.37,7.67,33.97,2.12,1.47,4.21,2.74,6.08,3.79"/>
  <path class="cls-4" d="M254.83,53.49c86.86-12.46,167.38,47.85,179.85,134.71,7.01,48.86-9.01,95.71-39.82,129.58l-1.96,2.04"/>
  <path class="cls-4" d="M263.48,24.07c117.7-16.89,226.8,64.83,243.69,182.53,7.39,51.49-4.1,101.34-29.21,142.54,0,0-15.2,26.19-35.08,49.87"/>
  <path class="cls-4" d="M254.83,53.49s-48.34,6.94-99.51,46.63c-4.47,3.47-10.24-2.2-6.85-6.73,46.06-61.49,115-69.32,115-69.32"/>
  <line class="cls-4" x1="208.9" y1="323.63" x2="220.7" y2="315.58"/>
  <line class="cls-4" x1="214.97" y1="335.76" x2="226.77" y2="327.71"/>
  <line class="cls-4" x1="224.79" y1="344.56" x2="236.59" y2="336.51"/>
  <line class="cls-4" x1="114.98" y1="391.25" x2="103.23" y2="399.37"/>
  <line class="cls-4" x1="124.12" y1="401.27" x2="112.36" y2="409.39"/>
  <line class="cls-4" x1="128.8" y1="413.61" x2="117.04" y2="421.72"/>
  <line class="cls-4" x1="305.09" y1="388.76" x2="328.36" y2="384.97"/>
  <line class="cls-4" x1="305.83" y1="400.98" x2="328.42" y2="396.92"/>
  <line class="cls-4" x1="314.85" y1="410.27" x2="335.75" y2="406.33"/>
  <line class="cls-4" x1="498.15" y1="363.52" x2="486.11" y2="379.94"/>
  <line class="cls-4" x1="502.65" y1="369.87" x2="491.52" y2="386.66"/>
  <line class="cls-4" x1="503.6" y1="377.9" x2="497.03" y2="388.44"/>
  <path class="cls-4" d="M144.05,294.39s6.02,9.75,11.51,16.72"/>
  <path class="cls-4" d="M251.06,373.38s35.15,8.99,60.51,6.56"/>
  <path class="cls-4" d="M390.45,391.25s45.93,12.95,32.01,45.32"/>
  <path class="cls-4" d="M99.57,296.52s-.38,27.63,9.32,48.25"/>
  <path class="cls-4" d="M178.81,425.02s40.77,47.57,133.41,54.01"/>
  <path class="cls-1" d="M133.95,204.84c0-13.06,3.81-23.65,8.49-23.65s8.49,10.59,8.49,23.65-3.81,23.65-8.5,23.65-8.48-10.59-8.48-23.65ZM136.37,201.98c0,7.46,2.17,13.51,4.85,13.51s4.85-6.04,4.85-13.51-2.17-13.51-4.85-13.51-4.85,6.05-4.85,13.51Z"/>
  <path class="cls-1" d="M91.5,201.97c0-7.46-2.17-13.51-4.85-13.51s-4.85,6.05-4.85,13.51,2.17,13.51,4.85,13.51c2.68.01,4.85-6.04,4.85-13.51ZM85.43,181.18c4.69,0,8.49,10.59,8.49,23.65s-3.81,23.65-8.5,23.65-8.48-10.59-8.48-23.65,3.81-23.65,8.49-23.65Z"/>
  <path class="cls-4" d="M93.92,204.83c0,13.06-3.81,23.65-8.5,23.65s-8.48-10.59-8.48-23.65,3.81-23.65,8.49-23.65,8.49,10.59,8.49,23.65Z"/>
  <path class="cls-4" d="M150.93,204.84c0,13.06-3.81,23.65-8.5,23.65s-8.48-10.59-8.48-23.65,3.81-23.65,8.49-23.65,8.49,10.59,8.49,23.65Z"/>
  <path class="cls-5" d="M146.08,201.98c0,7.47-2.17,13.51-4.85,13.51s-4.85-6.05-4.85-13.51,2.17-13.51,4.85-13.51,4.85,6.05,4.85,13.51Z"/>
  <path class="cls-3" d="M91.5,201.97c0,7.47-2.17,13.52-4.85,13.51-2.68,0-4.85-6.04-4.85-13.51s2.17-13.51,4.85-13.51,4.85,6.05,4.85,13.51Z"/>
</svg>