<?xml version="1.0" encoding="UTF-8"?>
<svg id="lining" xmlns="http://www.w3.org/2000/svg" viewBox="0 0 1795 512">
  <defs>
    <style>
      .cls-1, .cls-2, .cls-3, .cls-4 {
        stroke: #fff;
      }

      .cls-1, .cls-2, .cls-4 {
        fill: none;
      }

      .cls-1, .cls-3, .cls-4 {
        stroke-linecap: round;
        stroke-linejoin: round;
      }

      .cls-2 {
        stroke-miterlimit: 10;
      }

      .cls-3, .cls-4 {
        stroke-width: 5px;
      }

      .cls-3, .cls-5 {
        fill: #fff;
      }

      .cls-5 {
        stroke-width: 0px;
      }
    </style>
  </defs>
  <g>
    <g>
      <path class="cls-5" d="M609.47,170.68h-19.17v-20.25h19.17v-37.26h24.57v37.26h38.61v20.25h-38.61v87.21c0,14.58,5.4,19.71,20.52,19.71h18.09v20.79h-22.14c-26.19,0-41.04-10.8-41.04-40.5v-87.21Z"/>
      <path class="cls-5" d="M707.75,170.68h-19.17v-20.25h19.17v-37.26h24.57v37.26h38.61v20.25h-38.61v87.21c0,14.58,5.4,19.71,20.52,19.71h18.09v20.79h-22.14c-26.19,0-41.04-10.8-41.04-40.5v-87.21Z"/>
      <path class="cls-5" d="M864.62,300.82c-42.12,0-73.17-29.7-73.17-76.68s29.97-76.14,73.17-76.14,71.01,30.24,71.01,70.74c0,5.4-.27,9.72-.81,14.85h-118.26c1.89,29.97,22.95,46.44,48.06,46.44,22.14,0,36.18-11.34,41.58-27.27h26.46c-7.56,27-31.32,48.06-68.04,48.06ZM816.83,213.61h93.42c.27-28.89-21.33-44.82-46.71-44.82-24.03,0-44.01,15.93-46.71,44.82Z"/>
      <path class="cls-5" d="M992.6,298.39h-24.57v-147.96h24.57v24.03c8.37-16.47,24.3-26.73,47.79-26.73v25.38h-6.48c-23.49,0-41.31,10.53-41.31,44.82v80.46Z"/>
      <path class="cls-5" d="M1051.19,150.43h25.11l34.02,124.2,36.72-124.2h25.11l35.91,124.47,33.48-124.47h24.3l-46.17,147.96h-25.38l-35.64-117.45-35.64,117.45h-25.38l-46.44-147.96Z"/>
      <path class="cls-5" d="M1351.16,148c27.54,0,46.44,14.04,55.08,29.43v-27h24.84v147.96h-24.84v-27.54c-8.91,15.93-28.08,29.97-55.35,29.97-39.42,0-69.93-31.05-69.93-76.95s30.51-75.87,70.2-75.87ZM1356.02,169.33c-27,0-49.95,19.71-49.95,54.54s22.95,55.35,49.95,55.35,50.22-20.25,50.22-55.08-23.22-54.81-50.22-54.81Z"/>
      <path class="cls-5" d="M1481.56,150.43l46.17,125.28,45.9-125.28h26.19l-58.05,147.96h-28.62l-58.05-147.96h26.46Z"/>
      <path class="cls-5" d="M1688.11,300.82c-42.12,0-73.17-29.7-73.17-76.68s29.97-76.14,73.17-76.14,71.01,30.24,71.01,70.74c0,5.4-.27,9.72-.81,14.85h-118.26c1.89,29.97,22.95,46.44,48.06,46.44,22.14,0,36.18-11.34,41.58-27.27h26.46c-7.56,27-31.32,48.06-68.04,48.06ZM1640.32,213.61h93.42c.27-28.89-21.33-44.82-46.71-44.82-24.03,0-44.01,15.93-46.71,44.82Z"/>
    </g>
    <g>
      <path class="cls-5" d="M601.35,386.45h18.5v4.2h-23.65v-51.51h5.16v47.31Z"/>
      <path class="cls-5" d="M627.32,359.59c1.65-3.12,3.93-5.53,6.85-7.22,2.92-1.7,6.23-2.54,9.91-2.54s7.14.88,9.91,2.65c2.78,1.77,4.78,4.03,6.01,6.78v-8.84h5.16v40.24h-5.16v-8.92c-1.28,2.75-3.3,5.02-6.08,6.82-2.78,1.79-6.08,2.69-9.91,2.69s-6.92-.86-9.84-2.58c-2.92-1.72-5.21-4.15-6.85-7.29-1.65-3.14-2.47-6.78-2.47-10.91s.82-7.75,2.47-10.87ZM658.02,361.98c-1.33-2.46-3.13-4.35-5.42-5.68-2.28-1.33-4.8-1.99-7.55-1.99s-5.41.64-7.66,1.92c-2.26,1.28-4.04,3.13-5.34,5.56-1.3,2.43-1.95,5.32-1.95,8.66s.65,6.18,1.95,8.66c1.3,2.48,3.08,4.37,5.34,5.67,2.26,1.3,4.81,1.95,7.66,1.95s5.27-.66,7.55-1.99c2.29-1.33,4.09-3.22,5.42-5.67,1.33-2.46,1.99-5.3,1.99-8.55s-.66-6.09-1.99-8.55Z"/>
      <path class="cls-5" d="M727.8,354.13c3.05,2.97,4.57,7.29,4.57,12.93v23.58h-5.09v-22.99c0-4.37-1.09-7.71-3.28-10.02-2.19-2.31-5.17-3.46-8.95-3.46s-6.98,1.23-9.29,3.69c-2.31,2.46-3.46,6.07-3.46,10.83v21.96h-5.16v-40.24h5.16v6.85c1.28-2.46,3.12-4.34,5.53-5.64,2.41-1.3,5.13-1.95,8.18-1.95,4.81,0,8.74,1.49,11.79,4.46Z"/>
      <path class="cls-5" d="M751.2,388.7c-3.02-1.7-5.41-4.1-7.15-7.22-1.74-3.12-2.62-6.77-2.62-10.94s.88-7.82,2.65-10.95c1.77-3.12,4.17-5.53,7.22-7.22,3.05-1.7,6.46-2.54,10.24-2.54s7.21.85,10.28,2.54c3.07,1.69,5.48,4.1,7.22,7.22,1.74,3.12,2.62,6.77,2.62,10.95s-.88,7.76-2.65,10.9c-1.77,3.14-4.2,5.56-7.3,7.26s-6.54,2.54-10.32,2.54-7.19-.85-10.21-2.54ZM768.78,384.94c2.26-1.21,4.09-3.02,5.49-5.46,1.4-2.43,2.1-5.41,2.1-8.95s-.69-6.52-2.06-8.96c-1.38-2.43-3.2-4.25-5.45-5.45-2.26-1.2-4.72-1.8-7.37-1.8s-5.11.6-7.37,1.8c-2.26,1.21-4.07,3.02-5.42,5.45-1.35,2.43-2.03,5.42-2.03,8.96s.68,6.52,2.03,8.95c1.35,2.43,3.14,4.25,5.38,5.46,2.24,1.2,4.68,1.8,7.33,1.8s5.11-.6,7.37-1.8Z"/>
      <path class="cls-5" d="M825.96,350.41v40.24h-5.16v-7.07c-1.18,2.5-3,4.42-5.45,5.75-2.46,1.33-5.21,1.99-8.25,1.99-4.81,0-8.75-1.48-11.79-4.46-3.05-2.97-4.57-7.28-4.57-12.93v-23.51h5.08v22.92c0,4.37,1.09,7.71,3.28,10.02,2.19,2.31,5.17,3.46,8.96,3.46s6.97-1.23,9.28-3.69c2.31-2.46,3.46-6.07,3.46-10.83v-21.89h5.16Z"/>
      <path class="cls-5" d="M852.05,385.64l13.56-35.22h5.46l-16.14,40.24h-5.82l-16.14-40.24h5.53l13.56,35.22Z"/>
      <path class="cls-5" d="M914.32,372.52h-33.38c.15,3.05.88,5.65,2.21,7.81,1.33,2.16,3.07,3.79,5.23,4.9,2.16,1.11,4.52,1.66,7.07,1.66,3.34,0,6.15-.81,8.44-2.43s3.79-3.81,4.53-6.56h5.45c-.98,3.93-3.08,7.13-6.3,9.62-3.22,2.48-7.26,3.72-12.12,3.72-3.78,0-7.17-.85-10.17-2.54-3-1.7-5.34-4.1-7.04-7.22-1.7-3.12-2.54-6.77-2.54-10.94s.83-7.84,2.51-10.98c1.67-3.14,4-5.55,7-7.22s6.41-2.51,10.24-2.51,7.19.84,10.06,2.51,5.08,3.92,6.63,6.74c1.55,2.83,2.32,5.96,2.32,9.4,0,1.77-.05,3.12-.15,4.05ZM907.43,360.65c-1.25-2.11-2.96-3.71-5.12-4.79s-4.52-1.62-7.07-1.62c-3.83,0-7.1,1.23-9.8,3.68-2.7,2.46-4.2,5.92-4.49,10.39h28.3c.05-3-.55-5.55-1.8-7.67Z"/>
      <path class="cls-5" d="M929.06,336.12v54.53h-5.16v-54.53h5.16Z"/>
      <path class="cls-5" d="M945.94,336.12v54.53h-5.16v-54.53h5.16Z"/>
      <path class="cls-5" d="M993.91,372.52h-33.38c.15,3.05.88,5.65,2.21,7.81,1.33,2.16,3.07,3.79,5.23,4.9s4.52,1.66,7.07,1.66c3.34,0,6.15-.81,8.44-2.43,2.28-1.62,3.79-3.81,4.53-6.56h5.45c-.98,3.93-3.08,7.13-6.3,9.62-3.22,2.48-7.26,3.72-12.12,3.72-3.78,0-7.17-.85-10.17-2.54-3-1.7-5.34-4.1-7.04-7.22-1.7-3.12-2.54-6.77-2.54-10.94s.84-7.84,2.51-10.98c1.67-3.14,4-5.55,7-7.22,3-1.67,6.41-2.51,10.24-2.51s7.19.84,10.06,2.51c2.87,1.67,5.08,3.92,6.63,6.74,1.55,2.83,2.32,5.96,2.32,9.4,0,1.77-.05,3.12-.15,4.05ZM987.02,360.65c-1.25-2.11-2.96-3.71-5.12-4.79-2.16-1.08-4.52-1.62-7.08-1.62-3.83,0-7.1,1.23-9.8,3.68-2.7,2.46-4.2,5.92-4.5,10.39h28.3c.05-3-.55-5.55-1.8-7.67Z"/>
      <path class="cls-5" d="M1037.98,385.64l13.56-35.22h5.45l-16.14,40.24h-5.82l-16.14-40.24h5.53l13.56,35.22Z"/>
      <path class="cls-5" d="M1064.1,359.59c1.64-3.12,3.93-5.53,6.85-7.22,2.92-1.7,6.23-2.54,9.91-2.54s7.13.88,9.91,2.65c2.78,1.77,4.78,4.03,6.01,6.78v-8.84h5.16v40.24h-5.16v-8.92c-1.28,2.75-3.3,5.02-6.08,6.82-2.78,1.79-6.08,2.69-9.91,2.69s-6.92-.86-9.84-2.58c-2.92-1.72-5.21-4.15-6.85-7.29-1.65-3.14-2.47-6.78-2.47-10.91s.82-7.75,2.47-10.87ZM1094.8,361.98c-1.33-2.46-3.13-4.35-5.42-5.68s-4.8-1.99-7.55-1.99-5.4.64-7.66,1.92-4.04,3.13-5.34,5.56c-1.3,2.43-1.95,5.32-1.95,8.66s.65,6.18,1.95,8.66c1.3,2.48,3.08,4.37,5.34,5.67,2.26,1.3,4.81,1.95,7.66,1.95s5.27-.66,7.55-1.99,4.09-3.22,5.42-5.67c1.33-2.46,1.99-5.3,1.99-8.55s-.66-6.09-1.99-8.55Z"/>
      <path class="cls-5" d="M1140.49,352.47c2.8,1.77,4.81,4.01,6.04,6.71v-8.77h5.16v41.27c0,3.69-.8,6.95-2.39,9.8-1.6,2.85-3.82,5.05-6.67,6.6-2.85,1.55-6.09,2.32-9.73,2.32-5.16,0-9.45-1.23-12.86-3.69s-5.54-5.8-6.37-10.02h5.08c.88,2.8,2.57,5.04,5.05,6.71,2.48,1.67,5.51,2.51,9.1,2.51,2.6,0,4.94-.55,7-1.66,2.06-1.11,3.69-2.74,4.86-4.9,1.18-2.16,1.77-4.72,1.77-7.66v-9.95c-1.28,2.75-3.3,5.02-6.08,6.82-2.78,1.79-6.05,2.69-9.84,2.69s-6.99-.86-9.91-2.58c-2.92-1.72-5.21-4.15-6.85-7.29-1.65-3.14-2.47-6.78-2.47-10.91s.82-7.75,2.47-10.87c1.64-3.12,3.93-5.53,6.85-7.22,2.92-1.7,6.23-2.54,9.91-2.54s7.07.88,9.88,2.65ZM1144.54,361.98c-1.33-2.46-3.13-4.35-5.42-5.68s-4.8-1.99-7.55-1.99-5.4.64-7.66,1.92-4.04,3.13-5.34,5.56c-1.3,2.43-1.95,5.32-1.95,8.66s.65,6.18,1.95,8.66c1.3,2.48,3.08,4.37,5.34,5.67,2.26,1.3,4.81,1.95,7.66,1.95s5.27-.66,7.55-1.99,4.09-3.22,5.42-5.67c1.33-2.46,1.99-5.3,1.99-8.55s-.66-6.09-1.99-8.55Z"/>
      <path class="cls-5" d="M1198.33,350.41v40.24h-5.16v-7.07c-1.18,2.5-3,4.42-5.45,5.75-2.46,1.33-5.21,1.99-8.25,1.99-4.81,0-8.75-1.48-11.79-4.46-3.05-2.97-4.57-7.28-4.57-12.93v-23.51h5.08v22.92c0,4.37,1.09,7.71,3.28,10.02,2.19,2.31,5.17,3.46,8.96,3.46s6.97-1.23,9.29-3.69c2.31-2.46,3.46-6.07,3.46-10.83v-21.89h5.16Z"/>
      <path class="cls-5" d="M1246.38,372.52h-33.38c.15,3.05.88,5.65,2.21,7.81,1.33,2.16,3.07,3.79,5.23,4.9s4.52,1.66,7.07,1.66c3.34,0,6.15-.81,8.44-2.43,2.28-1.62,3.79-3.81,4.53-6.56h5.45c-.98,3.93-3.08,7.13-6.3,9.62-3.22,2.48-7.26,3.72-12.12,3.72-3.78,0-7.17-.85-10.17-2.54-3-1.7-5.34-4.1-7.04-7.22-1.7-3.12-2.54-6.77-2.54-10.94s.84-7.84,2.51-10.98c1.67-3.14,4-5.55,7-7.22,3-1.67,6.41-2.51,10.24-2.51s7.19.84,10.06,2.51c2.87,1.67,5.08,3.92,6.63,6.74,1.55,2.83,2.32,5.96,2.32,9.4,0,1.77-.05,3.12-.15,4.05ZM1239.49,360.65c-1.25-2.11-2.96-3.71-5.12-4.79-2.16-1.08-4.52-1.62-7.08-1.62-3.83,0-7.1,1.23-9.8,3.68-2.7,2.46-4.2,5.92-4.5,10.39h28.3c.05-3-.55-5.55-1.8-7.67Z"/>
      <path class="cls-5" d="M1276.3,359.59c1.67-3.12,3.97-5.53,6.89-7.22,2.92-1.7,6.23-2.54,9.91-2.54s6.73.86,9.58,2.58c2.85,1.72,4.94,3.96,6.26,6.71v-22.99h5.16v54.53h-5.16v-8.99c-1.23,2.8-3.24,5.1-6.04,6.89-2.8,1.79-6.09,2.69-9.88,2.69s-6.99-.86-9.91-2.58c-2.92-1.72-5.21-4.15-6.85-7.29-1.65-3.14-2.47-6.78-2.47-10.91s.84-7.75,2.51-10.87ZM1306.96,361.98c-1.33-2.46-3.13-4.35-5.42-5.68s-4.8-1.99-7.55-1.99-5.41.64-7.66,1.92c-2.26,1.28-4.04,3.13-5.34,5.56-1.3,2.43-1.95,5.32-1.95,8.66s.65,6.18,1.95,8.66c1.3,2.48,3.08,4.37,5.34,5.67,2.26,1.3,4.81,1.95,7.66,1.95s5.27-.66,7.55-1.99,4.09-3.22,5.42-5.67c1.33-2.46,1.99-5.3,1.99-8.55s-.66-6.09-1.99-8.55Z"/>
      <path class="cls-5" d="M1360.75,350.41v40.24h-5.16v-7.07c-1.18,2.5-3,4.42-5.45,5.75-2.46,1.33-5.21,1.99-8.25,1.99-4.82,0-8.75-1.48-11.79-4.46-3.04-2.97-4.57-7.28-4.57-12.93v-23.51h5.09v22.92c0,4.37,1.09,7.71,3.28,10.02,2.19,2.31,5.17,3.46,8.95,3.46s6.98-1.23,9.29-3.69c2.31-2.46,3.46-6.07,3.46-10.83v-21.89h5.16Z"/>
      <path class="cls-5" d="M1452.17,354.13c2.97,2.97,4.46,7.29,4.46,12.93v23.58h-5.09v-22.99c0-4.37-1.06-7.71-3.17-10.02-2.11-2.31-4.99-3.46-8.62-3.46s-6.8,1.25-9.06,3.76c-2.26,2.51-3.39,6.14-3.39,10.91v21.81h-5.08v-22.99c0-4.37-1.06-7.71-3.17-10.02-2.11-2.31-5.01-3.46-8.7-3.46s-6.8,1.25-9.06,3.76c-2.26,2.51-3.39,6.14-3.39,10.91v21.81h-5.16v-40.24h5.16v6.93c1.28-2.51,3.09-4.41,5.45-5.71,2.36-1.3,4.98-1.95,7.88-1.95,3.49,0,6.55.84,9.18,2.51,2.63,1.67,4.53,4.13,5.71,7.37,1.08-3.19,2.94-5.64,5.56-7.33,2.63-1.7,5.61-2.54,8.96-2.54,4.72,0,8.56,1.49,11.53,4.46Z"/>
      <path class="cls-5" d="M1468.16,359.59c1.65-3.12,3.93-5.53,6.85-7.22,2.92-1.7,6.23-2.54,9.91-2.54s7.13.88,9.91,2.65c2.78,1.77,4.78,4.03,6.01,6.78v-8.84h5.16v40.24h-5.16v-8.92c-1.28,2.75-3.3,5.02-6.08,6.82-2.78,1.79-6.08,2.69-9.91,2.69s-6.92-.86-9.84-2.58c-2.92-1.72-5.21-4.15-6.85-7.29-1.65-3.14-2.47-6.78-2.47-10.91s.82-7.75,2.47-10.87ZM1498.85,361.98c-1.33-2.46-3.13-4.35-5.42-5.68s-4.8-1.99-7.55-1.99-5.41.64-7.66,1.92c-2.26,1.28-4.04,3.13-5.34,5.56-1.3,2.43-1.95,5.32-1.95,8.66s.65,6.18,1.95,8.66c1.3,2.48,3.08,4.37,5.34,5.67,2.26,1.3,4.81,1.95,7.66,1.95s5.27-.66,7.55-1.99,4.09-3.22,5.42-5.67c1.33-2.46,1.99-5.3,1.99-8.55s-.66-6.09-1.99-8.55Z"/>
      <path class="cls-5" d="M1528.15,351.74c2.33-1.38,5.2-2.06,8.58-2.06v5.38h-1.4c-3.73,0-6.73,1.01-8.99,3.02-2.26,2.02-3.39,5.38-3.39,10.1v22.48h-5.16v-40.24h5.16v7.15c1.13-2.51,2.86-4.45,5.2-5.82Z"/>
      <path class="cls-5" d="M1566.21,390.65l-16.58-18.05v18.05h-5.16v-54.53h5.16v32.28l16.21-17.98h7.22l-19.09,20.04,19.23,20.19h-7Z"/>
      <path class="cls-5" d="M1616.1,372.52h-33.38c.15,3.05.88,5.65,2.21,7.81,1.33,2.16,3.07,3.79,5.23,4.9,2.16,1.11,4.52,1.66,7.07,1.66,3.34,0,6.15-.81,8.44-2.43,2.28-1.62,3.79-3.81,4.53-6.56h5.45c-.98,3.93-3.08,7.13-6.3,9.62-3.22,2.48-7.26,3.72-12.12,3.72-3.78,0-7.17-.85-10.17-2.54-3-1.7-5.34-4.1-7.04-7.22-1.7-3.12-2.54-6.77-2.54-10.94s.83-7.84,2.51-10.98c1.67-3.14,4-5.55,7-7.22s6.41-2.51,10.24-2.51,7.19.84,10.06,2.51c2.87,1.67,5.08,3.92,6.63,6.74,1.55,2.83,2.32,5.96,2.32,9.4,0,1.77-.05,3.12-.15,4.05ZM1609.21,360.65c-1.25-2.11-2.96-3.71-5.12-4.79-2.16-1.08-4.52-1.62-7.08-1.62-3.83,0-7.1,1.23-9.8,3.68-2.7,2.46-4.2,5.92-4.49,10.39h28.3c.05-3-.55-5.55-1.8-7.67Z"/>
      <path class="cls-5" d="M1632.38,354.76v24.98c0,2.46.47,4.15,1.4,5.09s2.58,1.4,4.94,1.4h4.72v4.42h-5.53c-3.64,0-6.34-.85-8.11-2.54-1.77-1.7-2.65-4.48-2.65-8.37v-24.98h-5.6v-4.35h5.6v-10.1h5.23v10.1h11.05v4.35h-11.05Z"/>
      <path class="cls-5" d="M1651.84,341.71c-.74-.74-1.11-1.64-1.11-2.73s.37-1.98,1.11-2.69c.74-.71,1.62-1.07,2.65-1.07s1.92.36,2.65,1.07c.74.71,1.11,1.61,1.11,2.69s-.37,1.99-1.11,2.73-1.62,1.11-2.65,1.11-1.92-.37-2.65-1.11ZM1657.07,350.41v40.24h-5.16v-40.24h5.16Z"/>
      <path class="cls-5" d="M1699.45,354.13c3.04,2.97,4.57,7.29,4.57,12.93v23.58h-5.08v-22.99c0-4.37-1.1-7.71-3.28-10.02-2.19-2.31-5.17-3.46-8.95-3.46s-6.98,1.23-9.29,3.69-3.46,6.07-3.46,10.83v21.96h-5.16v-40.24h5.16v6.85c1.28-2.46,3.12-4.34,5.53-5.64,2.41-1.3,5.13-1.95,8.18-1.95,4.81,0,8.74,1.49,11.79,4.46Z"/>
      <path class="cls-5" d="M1742.19,352.47c2.8,1.77,4.81,4.01,6.04,6.71v-8.77h5.16v41.27c0,3.69-.8,6.95-2.39,9.8-1.6,2.85-3.82,5.05-6.67,6.6-2.85,1.55-6.09,2.32-9.73,2.32-5.16,0-9.45-1.23-12.86-3.69s-5.54-5.8-6.37-10.02h5.08c.88,2.8,2.57,5.04,5.05,6.71,2.48,1.67,5.51,2.51,9.1,2.51,2.6,0,4.94-.55,7-1.66,2.06-1.11,3.69-2.74,4.86-4.9,1.18-2.16,1.77-4.72,1.77-7.66v-9.95c-1.28,2.75-3.3,5.02-6.08,6.82-2.78,1.79-6.05,2.69-9.84,2.69s-6.99-.86-9.91-2.58c-2.92-1.72-5.21-4.15-6.85-7.29-1.65-3.14-2.47-6.78-2.47-10.91s.82-7.75,2.47-10.87c1.64-3.12,3.93-5.53,6.85-7.22,2.92-1.7,6.23-2.54,9.91-2.54s7.07.88,9.88,2.65ZM1746.24,361.98c-1.33-2.46-3.13-4.35-5.42-5.68s-4.8-1.99-7.55-1.99-5.4.64-7.66,1.92-4.04,3.13-5.34,5.56c-1.3,2.43-1.95,5.32-1.95,8.66s.65,6.18,1.95,8.66c1.3,2.48,3.08,4.37,5.34,5.67,2.26,1.3,4.81,1.95,7.66,1.95s5.27-.66,7.55-1.99,4.09-3.22,5.42-5.67c1.33-2.46,1.99-5.3,1.99-8.55s-.66-6.09-1.99-8.55Z"/>
    </g>
  </g>
  <g>
    <path class="cls-4" d="M101.64,145.67c21.98-9.47,46.34-9.46,68.34-.04,8.66,3.71,17.37,9,23.96,16.55,22.22,25.43,11.86,51.05,21.82,61.37,9.97,10.32,10.9,73.58-79.76,73.57h-.25c-90.67-.02-89.71-63.28-79.74-73.6,9.97-10.32-.38-35.94,21.85-61.36,6.57-7.51,15.19-12.79,23.77-16.49Z"/>
    <ellipse class="cls-3" cx="135.89" cy="247.38" rx="12.74" ry="6.06"/>
    <path class="cls-4" d="M94.74,149.12s-8.49-15.77-21.83-4.86c-13.94,11.4.88,23.05.88,23.05"/>
    <path class="cls-4" d="M177.31,149.14s8.49-15.77,21.83-4.85c13.94,11.41-.89,23.05-.89,23.05"/>
    <polyline class="cls-4" points="268.76 347.15 282.54 366.42 159.12 454.63 145.34 435.35"/>
    <polyline class="cls-4" points="110.79 387.01 97.38 368.24 220.8 280.03 234.22 298.82"/>
    <ellipse class="cls-4" cx="128.6" cy="410.81" rx="20.01" ry="29.72" transform="translate(-214.89 151.36) rotate(-35.55)"/>
    <ellipse class="cls-4" cx="251.95" cy="322.65" rx="20.01" ry="29.72" transform="translate(-140.64 206.65) rotate(-35.55)"/>
    <polyline class="cls-4" points="220.8 280.03 189.78 367.08 97.38 368.24"/>
    <path class="cls-4" d="M370.95,369.57s-57.81,2.6-43.03,33.13c12.19,25.21,107.51,5.07,90.39-43.16"/>
    <path class="cls-4" d="M113.24,295.62c-.18,4.77-2,32.17,7.7,55.21"/>
    <path class="cls-4" d="M174.48,292.85c3.15,3.76,7.43,8.57,11.44,12.11"/>
    <path class="cls-4" d="M465.3,386.66c2.94,46.14-53.46,88.54-131.34,92.37-77.87,3.82-149.87-42.25-149.87-42.25"/>
    <path class="cls-4" d="M273.18,342.46s25.75,7.46,58.1,2.5"/>
    <path class="cls-4" d="M341.37,478.55s29.34,24.24,75.58,2.62c46.24-21.63,47.95-43.43,47.95-43.43,0,0,54.96-21.06,60.45-59.84,1.12-7.94-3.87-15.67-11.67-17.55-7.76-1.87-20.09,1.42-34.48,20.65"/>
    <line class="cls-4" x1="183.27" y1="244.96" x2="247.37" y2="240.15"/>
    <line class="cls-4" x1="183.26" y1="256" x2="245.12" y2="259.53"/>
    <line class="cls-4" x1="88.48" y1="244.94" x2="24.38" y2="240.11"/>
    <line class="cls-4" x1="88.48" y1="255.98" x2="26.62" y2="259.49"/>
    <path class="cls-4" d="M418.8,321.57s-22.68-11.32-50.63-5.51c-19.04,3.96-29.15,10.31-33.95,19.58-6.12,11.82-3.26,26.37,7.67,33.97,2.12,1.47,4.21,2.74,6.08,3.79"/>
    <path class="cls-4" d="M276.58,53.49c86.86-12.46,167.38,47.85,179.85,134.71,7.01,48.86-9.01,95.71-39.82,129.58l-1.96,2.04"/>
    <path class="cls-4" d="M285.23,24.07c117.7-16.89,226.8,64.83,243.69,182.53,7.39,51.49-4.1,101.34-29.21,142.54,0,0-15.2,26.19-35.08,49.87"/>
    <path class="cls-4" d="M276.58,53.49s-48.34,6.94-99.51,46.63c-4.47,3.47-10.24-2.2-6.85-6.73,46.06-61.49,115-69.32,115-69.32"/>
    <line class="cls-4" x1="230.65" y1="323.63" x2="242.45" y2="315.58"/>
    <line class="cls-4" x1="236.72" y1="335.76" x2="248.52" y2="327.71"/>
    <line class="cls-4" x1="246.54" y1="344.56" x2="258.34" y2="336.51"/>
    <line class="cls-4" x1="136.73" y1="391.25" x2="124.98" y2="399.37"/>
    <line class="cls-4" x1="145.87" y1="401.27" x2="134.11" y2="409.39"/>
    <line class="cls-4" x1="150.55" y1="413.61" x2="138.79" y2="421.72"/>
    <line class="cls-4" x1="326.84" y1="388.76" x2="350.11" y2="384.97"/>
    <line class="cls-4" x1="327.58" y1="400.98" x2="350.17" y2="396.92"/>
    <line class="cls-4" x1="336.6" y1="410.27" x2="357.5" y2="406.33"/>
    <line class="cls-4" x1="519.9" y1="363.52" x2="507.86" y2="379.94"/>
    <line class="cls-4" x1="524.4" y1="369.87" x2="513.27" y2="386.66"/>
    <line class="cls-4" x1="525.35" y1="377.9" x2="518.78" y2="388.44"/>
    <path class="cls-4" d="M165.8,294.39s6.02,9.75,11.51,16.72"/>
    <path class="cls-4" d="M272.81,373.38s35.15,8.99,60.51,6.56"/>
    <path class="cls-4" d="M412.2,391.25s45.93,12.95,32.01,45.32"/>
    <path class="cls-4" d="M121.32,296.52s-.38,27.63,9.32,48.25"/>
    <path class="cls-4" d="M200.56,425.02s40.77,47.57,133.41,54.01"/>
    <path class="cls-5" d="M155.7,204.84c0-13.06,3.81-23.65,8.49-23.65s8.49,10.59,8.49,23.65-3.81,23.65-8.5,23.65-8.48-10.59-8.48-23.65ZM158.12,201.98c0,7.46,2.17,13.51,4.85,13.51s4.85-6.04,4.85-13.51-2.17-13.51-4.85-13.51-4.85,6.05-4.85,13.51Z"/>
    <path class="cls-5" d="M113.25,201.97c0-7.46-2.17-13.51-4.85-13.51s-4.85,6.05-4.85,13.51,2.17,13.51,4.85,13.51c2.68.01,4.85-6.04,4.85-13.51ZM107.18,181.18c4.69,0,8.49,10.59,8.49,23.65s-3.81,23.65-8.5,23.65-8.48-10.59-8.48-23.65,3.81-23.65,8.49-23.65Z"/>
    <path class="cls-4" d="M115.67,204.83c0,13.06-3.81,23.65-8.5,23.65s-8.48-10.59-8.48-23.65,3.81-23.65,8.49-23.65,8.49,10.59,8.49,23.65Z"/>
    <path class="cls-4" d="M172.68,204.84c0,13.06-3.81,23.65-8.5,23.65s-8.48-10.59-8.48-23.65,3.81-23.65,8.49-23.65,8.49,10.59,8.49,23.65Z"/>
    <path class="cls-1" d="M167.83,201.98c0,7.47-2.17,13.51-4.85,13.51s-4.85-6.05-4.85-13.51,2.17-13.51,4.85-13.51,4.85,6.05,4.85,13.51Z"/>
    <path class="cls-2" d="M113.25,201.97c0,7.47-2.17,13.52-4.85,13.51-2.68,0-4.85-6.04-4.85-13.51s2.17-13.51,4.85-13.51,4.85,6.05,4.85,13.51Z"/>
  </g>
</svg>