<?xml version="1.0" encoding="UTF-8"?>
<svg id="lining" xmlns="http://www.w3.org/2000/svg" viewBox="0 0 1795 512">
  <defs>
    <style>
      .cls-1 {
        stroke-width: 0px;
      }

      .cls-1, .cls-2 {
        fill: #179299;
      }

      .cls-3 {
        stroke-miterlimit: 10;
      }

      .cls-3, .cls-4, .cls-5 {
        fill: none;
      }

      .cls-3, .cls-4, .cls-5, .cls-2 {
        stroke: #179299;
      }

      .cls-4, .cls-5, .cls-2 {
        stroke-linecap: round;
        stroke-linejoin: round;
      }

      .cls-4, .cls-2 {
        stroke-width: 5px;
      }
    </style>
  </defs>
  <g>
    <path class="cls-1" d="M609.47,213.68h-19.17v-20.25h19.17v-37.26h24.57v37.26h38.61v20.25h-38.61v87.21c0,14.58,5.4,19.71,20.52,19.71h18.09v20.79h-22.14c-26.19,0-41.04-10.8-41.04-40.5v-87.21Z"/>
    <path class="cls-1" d="M707.75,213.68h-19.17v-20.25h19.17v-37.26h24.57v37.26h38.61v20.25h-38.61v87.21c0,14.58,5.4,19.71,20.52,19.71h18.09v20.79h-22.14c-26.19,0-41.04-10.8-41.04-40.5v-87.21Z"/>
    <path class="cls-1" d="M864.62,343.82c-42.12,0-73.17-29.7-73.17-76.68s29.97-76.14,73.17-76.14,71.01,30.24,71.01,70.74c0,5.4-.27,9.72-.81,14.85h-118.26c1.89,29.97,22.95,46.44,48.06,46.44,22.14,0,36.18-11.34,41.58-27.27h26.46c-7.56,27-31.32,48.06-68.04,48.06ZM816.83,256.61h93.42c.27-28.89-21.33-44.82-46.71-44.82-24.03,0-44.01,15.93-46.71,44.82Z"/>
    <path class="cls-1" d="M992.6,341.39h-24.57v-147.96h24.57v24.03c8.37-16.47,24.3-26.73,47.79-26.73v25.38h-6.48c-23.49,0-41.31,10.53-41.31,44.82v80.46Z"/>
    <path class="cls-1" d="M1051.19,193.43h25.11l34.02,124.2,36.72-124.2h25.11l35.91,124.47,33.48-124.47h24.3l-46.17,147.96h-25.38l-35.64-117.45-35.64,117.45h-25.38l-46.44-147.96Z"/>
    <path class="cls-1" d="M1351.16,191c27.54,0,46.44,14.04,55.08,29.43v-27h24.84v147.96h-24.84v-27.54c-8.91,15.93-28.08,29.97-55.35,29.97-39.42,0-69.93-31.05-69.93-76.95s30.51-75.87,70.2-75.87ZM1356.02,212.33c-27,0-49.95,19.71-49.95,54.54s22.95,55.35,49.95,55.35,50.22-20.25,50.22-55.08-23.22-54.81-50.22-54.81Z"/>
    <path class="cls-1" d="M1481.56,193.43l46.17,125.28,45.9-125.28h26.19l-58.05,147.96h-28.62l-58.05-147.96h26.46Z"/>
    <path class="cls-1" d="M1688.11,343.82c-42.12,0-73.17-29.7-73.17-76.68s29.97-76.14,73.17-76.14,71.01,30.24,71.01,70.74c0,5.4-.27,9.72-.81,14.85h-118.26c1.89,29.97,22.95,46.44,48.06,46.44,22.14,0,36.18-11.34,41.58-27.27h26.46c-7.56,27-31.32,48.06-68.04,48.06ZM1640.32,256.61h93.42c.27-28.89-21.33-44.82-46.71-44.82-24.03,0-44.01,15.93-46.71,44.82Z"/>
  </g>
  <g>
    <path class="cls-4" d="M101.53,145.67c21.98-9.47,46.34-9.46,68.34-.04,8.66,3.71,17.37,9,23.96,16.55,22.22,25.43,11.86,51.05,21.82,61.37,9.97,10.32,10.9,73.58-79.76,73.57h-.25c-90.67-.02-89.71-63.28-79.74-73.6,9.97-10.32-.38-35.94,21.85-61.36,6.57-7.51,15.19-12.79,23.77-16.49Z"/>
    <ellipse class="cls-2" cx="135.78" cy="247.38" rx="12.74" ry="6.06"/>
    <path class="cls-4" d="M94.64,149.12s-8.49-15.77-21.83-4.86c-13.94,11.4.88,23.05.88,23.05"/>
    <path class="cls-4" d="M177.2,149.14s8.49-15.77,21.83-4.85c13.94,11.41-.89,23.05-.89,23.05"/>
    <polyline class="cls-4" points="268.66 347.15 282.44 366.42 159.02 454.63 145.24 435.35"/>
    <polyline class="cls-4" points="110.69 387.01 97.27 368.24 220.69 280.03 234.12 298.82"/>
    <ellipse class="cls-4" cx="128.5" cy="410.81" rx="20.01" ry="29.72" transform="translate(-214.91 151.3) rotate(-35.55)"/>
    <ellipse class="cls-4" cx="251.85" cy="322.65" rx="20.01" ry="29.72" transform="translate(-140.66 206.59) rotate(-35.55)"/>
    <polyline class="cls-4" points="220.69 280.03 189.68 367.08 97.27 368.24"/>
    <path class="cls-4" d="M370.84,369.57s-57.81,2.6-43.03,33.13c12.19,25.21,107.51,5.07,90.39-43.16"/>
    <path class="cls-4" d="M113.14,295.62c-.18,4.77-2,32.17,7.7,55.21"/>
    <path class="cls-4" d="M174.38,292.85c3.15,3.76,7.43,8.57,11.44,12.11"/>
    <path class="cls-4" d="M465.2,386.66c2.94,46.14-53.46,88.54-131.34,92.37-77.87,3.82-149.87-42.25-149.87-42.25"/>
    <path class="cls-4" d="M273.08,342.46s25.75,7.46,58.1,2.5"/>
    <path class="cls-4" d="M341.26,478.55s29.34,24.24,75.58,2.62c46.24-21.63,47.95-43.43,47.95-43.43,0,0,54.96-21.06,60.45-59.84,1.12-7.94-3.87-15.67-11.67-17.55-7.76-1.87-20.09,1.42-34.48,20.65"/>
    <line class="cls-4" x1="183.16" y1="244.96" x2="247.27" y2="240.15"/>
    <line class="cls-4" x1="183.16" y1="256" x2="245.02" y2="259.53"/>
    <line class="cls-4" x1="88.37" y1="244.94" x2="24.27" y2="240.11"/>
    <line class="cls-4" x1="88.37" y1="255.98" x2="26.51" y2="259.49"/>
    <path class="cls-4" d="M418.7,321.57s-22.68-11.32-50.63-5.51c-19.04,3.96-29.15,10.31-33.95,19.58-6.12,11.82-3.26,26.37,7.67,33.97,2.12,1.47,4.21,2.74,6.08,3.79"/>
    <path class="cls-4" d="M276.48,53.49c86.86-12.46,167.38,47.85,179.85,134.71,7.01,48.86-9.01,95.71-39.82,129.58l-1.96,2.04"/>
    <path class="cls-4" d="M285.12,24.07c117.7-16.89,226.8,64.83,243.69,182.53,7.39,51.49-4.1,101.34-29.21,142.54,0,0-15.2,26.19-35.08,49.87"/>
    <path class="cls-4" d="M276.48,53.49s-48.34,6.94-99.51,46.63c-4.47,3.47-10.24-2.2-6.85-6.73,46.06-61.49,115-69.32,115-69.32"/>
    <line class="cls-4" x1="230.55" y1="323.63" x2="242.35" y2="315.58"/>
    <line class="cls-4" x1="236.61" y1="335.76" x2="248.41" y2="327.71"/>
    <line class="cls-4" x1="246.44" y1="344.56" x2="258.24" y2="336.51"/>
    <line class="cls-4" x1="136.63" y1="391.25" x2="124.87" y2="399.37"/>
    <line class="cls-4" x1="145.76" y1="401.27" x2="134.01" y2="409.39"/>
    <line class="cls-4" x1="150.44" y1="413.61" x2="138.69" y2="421.72"/>
    <line class="cls-4" x1="326.74" y1="388.76" x2="350.01" y2="384.97"/>
    <line class="cls-4" x1="327.48" y1="400.98" x2="350.07" y2="396.92"/>
    <line class="cls-4" x1="336.49" y1="410.27" x2="357.4" y2="406.33"/>
    <line class="cls-4" x1="519.79" y1="363.52" x2="507.76" y2="379.94"/>
    <line class="cls-4" x1="524.29" y1="369.87" x2="513.17" y2="386.66"/>
    <line class="cls-4" x1="525.24" y1="377.9" x2="518.67" y2="388.44"/>
    <path class="cls-4" d="M165.69,294.39s6.02,9.75,11.51,16.72"/>
    <path class="cls-4" d="M272.7,373.38s35.15,8.99,60.51,6.56"/>
    <path class="cls-4" d="M412.1,391.25s45.93,12.95,32.01,45.32"/>
    <path class="cls-4" d="M121.22,296.52s-.38,27.63,9.32,48.25"/>
    <path class="cls-4" d="M200.45,425.02s40.77,47.57,133.41,54.01"/>
    <path class="cls-1" d="M155.59,204.84c0-13.06,3.81-23.65,8.49-23.65s8.49,10.59,8.49,23.65-3.81,23.65-8.5,23.65-8.48-10.59-8.48-23.65ZM158.02,201.98c0,7.46,2.17,13.51,4.85,13.51s4.85-6.04,4.85-13.51-2.17-13.51-4.85-13.51-4.85,6.05-4.85,13.51Z"/>
    <path class="cls-1" d="M113.14,201.97c0-7.46-2.17-13.51-4.85-13.51s-4.85,6.05-4.85,13.51,2.17,13.51,4.85,13.51c2.68.01,4.85-6.04,4.85-13.51ZM107.08,181.18c4.69,0,8.49,10.59,8.49,23.65s-3.81,23.65-8.5,23.65-8.48-10.59-8.48-23.65,3.81-23.65,8.49-23.65Z"/>
    <path class="cls-4" d="M115.57,204.83c0,13.06-3.81,23.65-8.5,23.65s-8.48-10.59-8.48-23.65,3.81-23.65,8.49-23.65,8.49,10.59,8.49,23.65Z"/>
    <path class="cls-4" d="M172.57,204.84c0,13.06-3.81,23.65-8.5,23.65s-8.48-10.59-8.48-23.65,3.81-23.65,8.49-23.65,8.49,10.59,8.49,23.65Z"/>
    <path class="cls-5" d="M167.72,201.98c0,7.47-2.17,13.51-4.85,13.51s-4.85-6.05-4.85-13.51,2.17-13.51,4.85-13.51,4.85,6.05,4.85,13.51Z"/>
    <path class="cls-3" d="M113.14,201.97c0,7.47-2.17,13.52-4.85,13.51-2.68,0-4.85-6.04-4.85-13.51s2.17-13.51,4.85-13.51,4.85,6.05,4.85,13.51Z"/>
  </g>
</svg>